HIERARCHY
ROOT joint_Root
{
	OFFSET 0.0 0.0 0.0
	CHANNELS 6 Xposition Yposition Zposition Zrotation Xrotation Yrotation 
	JOINT Hips
	{
		OFFSET -17.1583 93.1646 452.98
		CHANNELS 6 Xposition Yposition Zposition Zrotation Xrotation Yrotation 
		JOINT Spine
		{
			OFFSET 15.7357 0.0 0.0
			CHANNELS 6 Xposition Yposition Zposition Zrotation Xrotation Yrotation 
			JOINT Chest
			{
				OFFSET 8.98455 -0.406207 0.0
				CHANNELS 6 Xposition Yposition Zposition Zrotation Xrotation Yrotation 
				JOINT Neck
				{
					OFFSET 16.3773 0.0 0.0
					CHANNELS 6 Xposition Yposition Zposition Zrotation Xrotation Yrotation 
					JOINT Head
					{
						OFFSET 6.45672 0.0 0.0
						CHANNELS 6 Xposition Yposition Zposition Zrotation Xrotation Yrotation 
						End Site
						{
							OFFSET 0.0 0.0 0.0
						}
					}
				}
				JOINT Shoulder_L
				{
					OFFSET 12.9942 -0.242716 4.98039
					CHANNELS 6 Xposition Yposition Zposition Zrotation Xrotation Yrotation 
					JOINT UpperArm_L
					{
						OFFSET 5.34809 0.0 0.0
						CHANNELS 6 Xposition Yposition Zposition Zrotation Xrotation Yrotation 
						JOINT LowerArm_L
						{
							OFFSET 24.3286 1.87007e-05 0.0
							CHANNELS 6 Xposition Yposition Zposition Zrotation Xrotation Yrotation 
							JOINT Hand_L
							{
								OFFSET 22.2916 0.0 0.0
								CHANNELS 6 Xposition Yposition Zposition Zrotation Xrotation Yrotation 
								End Site
								{
									OFFSET 0.0 0.0 0.0
								}
							}
						}
					}
				}
				JOINT Shoulder_R
				{
					OFFSET 12.9945 -0.242716 -4.98039
					CHANNELS 6 Xposition Yposition Zposition Zrotation Xrotation Yrotation 
					JOINT UpperArm_R
					{
						OFFSET -5.34813 0.0 0.0
						CHANNELS 6 Xposition Yposition Zposition Zrotation Xrotation Yrotation 
						JOINT LowerArm_R
						{
							OFFSET -24.3289 0.000322201 0.0
							CHANNELS 6 Xposition Yposition Zposition Zrotation Xrotation Yrotation 
							JOINT Hand_R
							{
								OFFSET -22.2915 -0.000108084 0.0
								CHANNELS 6 Xposition Yposition Zposition Zrotation Xrotation Yrotation 
								End Site
								{
									OFFSET 0.0 0.0 0.0
								}
							}
						}
					}
				}
			}
		}
		JOINT UpperLeg_L
		{
			OFFSET -2.19248 -6.46944 0.0
			CHANNELS 6 Xposition Yposition Zposition Zrotation Xrotation Yrotation 
			JOINT LowerLeg_L
			{
				OFFSET 39.0811 0.0 -1.23785e-05
				CHANNELS 6 Xposition Yposition Zposition Zrotation Xrotation Yrotation 
				JOINT Foot_L
				{
					OFFSET 40.9854 0.0 -1.26872e-05
					CHANNELS 6 Xposition Yposition Zposition Zrotation Xrotation Yrotation 
					JOINT Toes_L
					{
						OFFSET 11.7543 0.0 0.0
						CHANNELS 6 Xposition Yposition Zposition Zrotation Xrotation Yrotation 
						End Site
						{
							OFFSET 0.0 0.0 0.0
						}
					}
				}
			}
		}
		JOINT UpperLeg_R
		{
			OFFSET -2.19251 6.46944 0.0
			CHANNELS 6 Xposition Yposition Zposition Zrotation Xrotation Yrotation 
			JOINT LowerLeg_R
			{
				OFFSET -39.0811 -0.00228153 -0.0401928
				CHANNELS 6 Xposition Yposition Zposition Zrotation Xrotation Yrotation 
				JOINT Foot_R
				{
					OFFSET -40.9854 0.0 0.0
					CHANNELS 6 Xposition Yposition Zposition Zrotation Xrotation Yrotation 
					JOINT Toes_R
					{
						OFFSET -11.7543 0.0 0.0
						CHANNELS 6 Xposition Yposition Zposition Zrotation Xrotation Yrotation 
						End Site
						{
							OFFSET 0.0 0.0 0.0
						}
					}
				}
			}
		}
	}
}
MOTION
Frames:	6
Frame Time:	0.0333333
0.000000 0.000000 0.000000 0.000000 0.000000 -0.000000 229.195000 94.541600 -156.332000 89.748900 5.718500 -4.586750 15.735700 0.000005 -0.000001 138.086000 86.915400 -137.413000 8.984550 -0.406207 -0.000000 -3.676730 4.520970 1.492080 16.377300 -0.000001 -0.000001 -3.307530 -1.554090 -0.697577 6.456720 -0.000001 -0.000000 4.987620 -4.785620 -2.128330 12.994200 -0.242716 4.980390 -92.316400 5.990780 -68.814700 5.348090 -0.000007 -0.000001 -42.478100 -23.896900 20.029600 24.328600 0.000019 0.000005 1.513390 6.493810 -13.147900 22.291600 -0.000001 0.000005 12.204700 4.912780 9.098960 12.994500 -0.242716 -4.980390 89.961700 0.131891 -73.822400 -5.348130 -0.000001 -0.000004 -64.495900 22.671000 -23.549200 -24.328900 0.000322 -0.000009 1.279120 0.799460 -58.031400 -22.291500 -0.000108 -0.000004 5.850260 5.349760 -1.368420 -2.192480 -6.469440 -0.000000 -173.771000 4.744280 -23.975900 39.081100 -0.000007 -0.000012 0.051943 -0.152130 18.852100 40.985400 -0.000006 -0.000013 -12.255200 13.433000 -54.751400 11.754300 -0.000000 0.000003 0.002050 0.048656 -14.603100 -2.192510 6.469440 -0.000001 -179.793000 10.376100 -175.042000 -39.081100 -0.002282 -0.040193 0.000443 0.011228 14.425900 -40.985400 0.000008 0.000006 -3.534170 -0.724749 -60.797600 -11.754300 -0.000006 -0.000006 -0.004343 -0.054958 -18.808800
0.000000 0.000000 0.000000 0.000000 0.000000 -0.000000 229.831000 93.882800 -153.240000 89.473600 5.003230 -4.284890 15.735700 0.000005 -0.000001 136.725000 86.590600 -136.008000 8.984550 -0.406207 -0.000000 -3.127320 4.894180 1.569550 16.377300 -0.000001 -0.000001 -3.860940 -1.225510 -0.817731 6.456720 -0.000001 -0.000000 4.351910 -4.398790 -1.867500 12.994200 -0.242716 4.980390 -92.202000 5.793540 -69.147600 5.348090 -0.000007 -0.000001 -40.984500 -25.462700 20.703300 24.328600 0.000019 0.000005 0.824960 3.846310 -12.107100 22.291600 -0.000001 0.000005 21.189500 4.832960 10.657400 12.994500 -0.242716 -4.980390 89.996100 0.014035 -74.377500 -5.348130 -0.000001 -0.000004 -63.431800 21.211900 -25.486800 -24.328900 0.000322 -0.000009 1.000230 0.536545 -61.835600 -22.291500 -0.000108 -0.000004 6.836800 5.356560 -1.573590 -2.192480 -6.469440 -0.000000 -173.923000 2.870600 -21.825700 39.081100 -0.000007 -0.000012 0.019583 -0.146618 7.607970 40.985400 -0.000006 -0.000013 -11.830700 13.011900 -56.916800 11.754300 -0.000000 0.000003 0.002129 0.051980 -14.468300 -2.192510 6.469440 -0.000001 179.876000 9.797540 -174.121000 -39.081100 -0.002282 -0.040193 -0.004365 0.025409 16.842200 -40.985400 0.000008 0.000006 -3.052480 -0.947500 -61.152400 -11.754300 -0.000006 -0.000006 -0.011356 -0.113504 -21.199400
0.000000 0.000000 0.000000 0.000000 0.000000 -0.000000 230.662000 92.971300 -149.787000 89.382700 4.363860 -3.943530 15.735700 0.000005 -0.000001 134.123000 86.335500 -133.373000 8.984550 -0.406207 -0.000000 -2.541540 5.033260 1.612930 16.377300 -0.000001 -0.000001 -4.319980 -0.838217 -0.895729 6.456720 -0.000001 -0.000000 3.681400 -3.977220 -1.563220 12.994200 -0.242716 4.980390 -92.275300 6.157480 -69.673600 5.348090 -0.000007 -0.000001 -40.504800 -25.828400 20.075300 24.328600 0.000019 0.000005 0.410220 2.536640 -9.185290 22.291600 -0.000001 0.000005 28.132800 4.710560 12.948900 12.994500 -0.242716 -4.980390 89.890400 0.405444 -74.868300 -5.348130 -0.000001 -0.000004 -62.668200 19.714300 -26.341600 -24.328900 0.000322 -0.000009 0.203322 0.095794 -65.003600 -22.291500 -0.000108 -0.000004 8.207080 5.376990 -2.200150 -2.192480 -6.469440 -0.000000 -174.507000 1.532160 -22.867900 39.081100 -0.000007 -0.000012 0.002143 -0.019255 6.351830 40.985400 -0.000006 -0.000013 -10.221800 12.332400 -61.491500 11.754300 -0.000000 0.000003 0.002132 0.052139 -14.461900 -2.192510 6.469440 -0.000001 179.354000 8.850390 -173.368000 -39.081100 -0.002282 -0.040193 -0.006089 0.025598 20.183400 -40.985400 0.000008 0.000006 -2.867060 -1.689400 -62.001000 -11.754300 -0.000006 -0.000006 -0.022906 -0.182884 -24.051000
0.000000 0.000000 0.000000 0.000000 0.000000 -0.000000 231.655000 91.934200 -145.767000 89.656600 4.000260 -3.643010 15.735700 0.000005 -0.000001 130.984000 86.286000 -130.314000 8.984550 -0.406207 -0.000000 -2.189330 4.812120 1.431990 16.377300 -0.000001 -0.000001 -4.340630 -0.546576 -0.826389 6.456720 -0.000001 -0.000000 3.149300 -3.356130 -1.150800 12.994200 -0.242716 4.980390 -92.432600 6.772630 -70.188500 5.348090 -0.000007 -0.000001 -41.268400 -24.998800 18.045200 24.328600 0.000019 0.000005 0.168876 2.186680 -4.404520 22.291600 -0.000001 0.000005 31.125900 4.583740 15.186900 12.994500 -0.242716 -4.980390 89.722100 1.052300 -75.206200 -5.348130 -0.000001 -0.000004 -63.173200 18.373600 -25.551200 -24.328900 0.000322 -0.000009 -1.054930 -0.458194 -66.494600 -22.291500 -0.000108 -0.000004 9.782960 5.447690 -4.546660 -2.192480 -6.469440 -0.000000 -175.562000 -0.116014 -22.803000 39.081100 -0.000007 -0.000012 0.010728 -0.084617 7.225880 40.985400 -0.000006 -0.000013 -13.193000 12.731300 -60.875100 11.754300 -0.000000 0.000003 0.001844 0.041162 -14.907000 -2.192510 6.469440 -0.000001 178.392000 7.830850 -172.490000 -39.081100 -0.002282 -0.040193 -0.001322 0.010513 23.796900 -40.985400 0.000008 0.000006 -2.955670 -2.511430 -62.070500 -11.754300 -0.000006 -0.000006 -0.045960 -0.283049 -28.218700
0.000000 0.000000 0.000000 0.000000 0.000000 -0.000000 232.873000 90.977300 -141.442000 90.750600 4.155200 -4.724020 15.735700 0.000005 -0.000001 133.062000 86.863600 -132.754000 8.984550 -0.406207 -0.000000 -3.198440 4.251580 0.735819 16.377300 -0.000001 -0.000001 -3.909480 -0.494234 -0.383712 6.456720 -0.000001 -0.000000 3.250160 -2.786050 -1.044970 12.994200 -0.242716 4.980390 -92.640000 7.604360 -70.789500 5.348090 -0.000007 -0.000001 -43.450200 -22.531800 15.718200 24.328600 0.000019 0.000005 0.029385 1.281420 -1.311710 22.291600 -0.000001 0.000005 30.971300 4.323570 19.431900 12.994500 -0.242716 -4.980390 89.504700 1.834430 -74.888600 -5.348130 -0.000001 -0.000004 -64.877600 17.637600 -22.728600 -24.328900 0.000322 -0.000009 -2.164840 -0.974585 -65.761700 -22.291500 -0.000108 -0.000004 11.510400 5.522530 -7.461760 -2.192480 -6.469440 -0.000000 -178.400000 -1.020660 -28.790100 39.081100 -0.000007 -0.000012 -0.008009 0.022270 19.780200 40.985400 -0.000006 -0.000013 -8.125550 13.510200 -58.958400 11.754300 -0.000000 0.000003 0.002053 0.048765 -14.598700 -2.192510 6.469440 -0.000001 176.838000 6.939890 -173.466000 -39.081100 -0.002282 -0.040193 0.021158 -0.033406 28.119300 -40.985400 0.000008 0.000006 -2.863240 -3.565680 -60.289300 -11.754300 -0.000006 -0.000006 -0.090153 -0.419440 -34.033500
0.000000 0.000000 0.000000 0.000000 0.000000 -0.000000 234.171000 90.193400 -136.739000 92.137400 4.047040 -5.115430 15.735700 0.000005 -0.000001 135.149000 87.439400 -135.384000 8.984550 -0.406207 -0.000000 -4.151000 3.652490 -0.337287 16.377300 -0.000001 -0.000001 -3.155920 -0.391915 0.197391 6.456720 -0.000001 -0.000000 3.837440 -2.080950 -0.403333 12.994200 -0.242716 4.980390 -92.842500 8.267390 -70.950100 5.348090 -0.000007 -0.000001 -46.709300 -20.681300 13.698300 24.328600 0.000019 0.000005 0.011478 0.388518 -1.692180 22.291600 -0.000001 0.000005 29.443900 4.111090 22.622900 12.994500 -0.242716 -4.980390 89.217800 2.834660 -74.566600 -5.348130 -0.000001 -0.000004 -67.560700 16.999100 -17.927600 -24.328900 0.000322 -0.000009 -2.515600 -1.326430 -62.199800 -22.291500 -0.000108 -0.000004 12.877400 5.563930 -9.378380 -2.192480 -6.469440 -0.000000 179.799000 1.023860 -31.226600 39.081100 -0.000007 -0.000012 0.083915 -0.151376 29.001600 40.985400 -0.000006 -0.000013 -4.506020 12.120200 -61.752100 11.754300 -0.000000 0.000003 0.002418 0.069841 -13.744200 -2.192510 6.469440 -0.000001 175.282000 5.426570 -175.011000 -39.081100 -0.002282 -0.040193 0.061075 -0.086549 33.727400 -40.985400 0.000008 0.000006 -1.353600 -5.660350 -54.655900 -11.754300 -0.000006 -0.000006 -0.171504 -0.595529 -41.903800
